<!--测试-->
<svg id="test" class="icon" viewBox="0 0 1024 1024" xmlns="http://www.w3.org/2000/svg" width="200" height="200"><defs><style/></defs><path d="M621.714 757.028H402.286c-20.2 0-36.572-16.374-36.572-36.57 0-20.2 16.374-36.572 36.572-36.572h73.142v-227.84h-19.016c-20.2 0-36.572-16.374-36.572-36.572 0-20.198 16.374-36.572 36.572-36.572H512c20.198 0 36.572 16.374 36.572 36.572v264.412h73.142c20.2 0 36.572 16.374 36.572 36.572 0 20.196-16.374 36.57-36.572 36.57M512 265.508c20.198 0 36.572 16.374 36.572 36.572 0 20.198-16.374 36.572-36.572 36.572-20.198 0-36.572-16.374-36.572-36.572 0-20.198 16.374-36.572 36.572-36.572M512 0C229.23 0 0 229.23 0 512s229.23 512 512 512 512-229.23 512-512A512 512 0 00512 0"/></svg>
